<?xml version="1.0" encoding="utf-8"?>
<?xml-stylesheet type="text/xsl" href="rss1.xsl"?>
<rss version="2.0" xmlns:atom="http://www.w3.org/2005/Atom" xmlns:content="http://purl.org/rss/1.0/modules/content/" xmlns:dc="http://purl.org/dc/elements/1.1/" xmlns:media="http://search.yahoo.com/mrss/">
<channel>
 <title>Getty</title>
 <link>http://www.gettyimg.com/</link>
 <atom:link href="http://www.gettyimg.com/" rel="self" type="application/rss+xml" />

 
                <item>
                <title><![CDATA[【HD Live Performances】UPSCALE - Kylie Minogue - Radio 2 in the Park - 2023 4K UPScale + Enhanced Audio]]></title>
                <link><![CDATA[https://sharemania.us/threads/kylie-minogue-radio-2-in-the-park-2023-4k-upscale-enhanced-audio.229113/]]></link>
                <description><![CDATA[<article>
<blockquote class="messageText SelectQuoteContainer ugc baseHtml">
<img src="https://i.postimg.cc/jjqZ4bzH/Kylie-Minogue-Radio-2-in-the-Park-2023-WEB-Ri-P-1080p-50fps-TPF-HDMania-0.jpg" class="bbCodeImage LbImage" alt="[​IMG]" data-url="https://i.postimg.cc/jjqZ4bzH/Kylie-Minogue-Radio-2-in-the-Park-2023-WEB-Ri-P-1080p-50fps-TPF-HDMania-0.jpg" style=""><br>
<img src="https://i.imgur.com/rpTlAlm.jpeg" class="bbCodeImage LbImage" alt="[​IMG]" data-url="https://i.imgur.com/rpTlAlm.jpeg" style=""><br>
<br>
Best video of Kylie Minogue at Radio 2 In The Park (4K UPScale + Enhanced Audio)<br>
<br>
<div class="ToggleTriggerAnchor bbCodeSpoilerContainer">
<button type="button" class="button bbCodeSpoilerButton ToggleTrigger Tooltip JsOnly" data-target="> .SpoilerTarget"><span>Spoiler: <span class="SpoilerTitle">MediaInfo</span></span></button>
<div class="SpoilerTarget bbCodeSpoilerText">
<div class="bbCodeBlock bbCodeCode">
<div class="type">Code:</div>
<pre>General
Unique ID                   : 87012516428253414658411502633109549603 (0x417600479A370B13F4DC5EF63169F223)
Complete name               Kylie Minogue- Radio 2 in the Park (4K Upscale + Enhanced Audio).mkv
Format                      : Matroska
Format version              : Version 4
File size                   : 14.8 GiB
Duration                    : 1 h 5 min
Overall bit rate            : 32.2 Mb/s
Frame rate                  : 50.000 FPS
Movie name                  : Kylie Minogue: Radio 2 in the Park
Encoded date                : 2023-09-22 02:47:59 UTC
Writing application         : mkvmerge v79.0 ('Funeral Pyres') 64-bit
Writing library             : libebml v1.4.4 + libmatroska v1.7.1
Cover                       : Yes
Attachments                 : cover.jpg

Video
ID                          : 1
Format                      : AVC
Format/Info                 : Advanced Video Codec
Format profile              : Constrained Baseline@L5.2
Format settings             : 1 Ref Frames
Format settings, CABAC      : No
Format settings, Reference  : 1 frame
Format settings, GOP        : M=1, N=12
Codec ID                    : V_MPEG4/ISO/AVC
Duration                    : 1 h 5 min
Bit rate                    : 30.7 Mb/s
Width                       : 3 840 pixels
Height                      : 2 160 pixels
Display aspect ratio        : 16:9
Frame rate mode             : Constant
Frame rate                  : 50.000 FPS
Color space                 : YUV
Chroma subsampling          : 4:2:0
Bit depth                   : 8 bits
Scan type                   : Progressive
Bits/(Pixel*Frame)          : 0.074
Stream size                 : 14.1 GiB (95%)
Writing library             : x264 core 157
Encoding settings           : cabac=0 / ref=1 / deblock=0:0:0 / analyse=0:0 / me=dia / subme=0 / psy=1 / psy_rd=1.00:0.00 / mixed_ref=0 / me_range=16 / chroma_me=1 / trellis=0 / 8x8dct=0 / cqm=0 / deadzone=21,11 / fast_pskip=1 / chroma_qp_offset=0 / threads=8 / lookahead_threads=1 / sliced_threads=0 / nr=0 / decimate=1 / interlaced=0 / bluray_compat=0 / constrained_intra=0 / bframes=0 / weightp=0 / keyint=12 / keyint_min=1 / scenecut=0 / intra_refresh=0 / rc=crf / mbtree=0 / crf=26.0 / qcomp=0.60 / qpmin=0 / qpmax=69 / qpstep=4 / ip_ratio=1.40 / aq=0
Language                    : English
Default                     : Yes
Forced                      : No
Color range                 : Limited
Color primaries             : BT.709
Transfer characteristics    : BT.709
Matrix coefficients         : BT.709

Audio
ID                          : 2
Format                      : PCM
Format settings             : Little / Signed
Codec ID                    : A_PCM/INT/LIT
Duration                    : 1 h 5 min
Bit rate mode               : Constant
Bit rate                    : 1 536 kb/s
Channel(s)                  : 2 channels
Sampling rate               : 48.0 kHz
Frame rate                  : 25.000 FPS (1920 SPF)
Bit depth                   : 16 bits
Stream size                 : 725 MiB (5%)
Language                    : English
Default                     : Yes
Forced                      : No</pre>
</div></div>
</div><br>
<div class="bbCodeBlock bbCodeVfcHH HiddenContent">
<div class="attribution type">Hidden Content:</div>
<blockquote>You must either reply or click 'Like' to see the hidden information contained here.</blockquote>
</div>
<div class="messageTextEndMarker">&nbsp;</div>
</blockquote>
</article>]]></description>
                <author><![CDATA[felbcardoso]]></author>
                </item>

                </channel></rss>